<svg version="1.1" class='loadingSvg' id="圖層_2" xmlns="http://www.w3.org/2000/svg" xmlns:xlink="http://www.w3.org/1999/xlink" x="0px" y="0px"
	 viewBox="0 0 500 765" style="enable-background:new 0 0 500 765;" xml:space="preserve">
<g id="ldOutLine">
	<line class="st0" x1="23.5" y1="121.5" x2="23.5" y2="379.8"/>
	<line class="st0" x1="477.5" y1="121.5" x2="477.5" y2="379.8"/>
	<line class="st0" x1="477.5" y1="639" x2="477.5" y2="379"/>
	<line class="st0" x1="23.5" y1="639" x2="23.5" y2="379"/>
	<g id="ldTri">
		<polyline id="ldT4" class="st0" points="250.5,22.5 23.5,22.5 23.5,121.5 112.5,46.5 47.5,46.5 47.5,71 		"/>
		<polyline id="ldT3" class="st0" points="250.5,22.5 477.5,22.5 477.5,121.5 388.5,46.5 453.5,46.5 453.5,71 		"/>
		<polyline id="ldT2" class="st0" points="250.5,738.5 477.5,738.5 477.5,639.5 388.5,714.5 453.5,714.5 453.5,690 		"/>
		<polyline id="ldT1" class="st0" points="250.5,738.5 23.5,738.5 23.5,639.5 112.5,714.5 47.5,714.5 47.5,690 		"/>
	</g>
</g>
<g id="ldInnerLine">
	<line class="st0" x1="52.5" y1="620" x2="52.5" y2="379.1"/>
	<line class="st0" x1="351" y1="54.3" x2="250.7" y2="54.3"/>
	<line class="st0" x1="150" y1="54.3" x2="251" y2="54.3"/>
	<line class="st0" x1="351" y1="709.3" x2="250.7" y2="709.3"/>
	<line class="st0" x1="150" y1="709.3" x2="251" y2="709.3"/>
	<line class="st0" x1="450.5" y1="140.5" x2="450.5" y2="379.8"/>
	<line class="st0" x1="450.5" y1="620" x2="450.5" y2="379.1"/>
	<line class="st0" x1="52.5" y1="140.5" x2="52.5" y2="379.8"/>
</g>
<g id="ldHand">
	<path class="st1" d="M249.2,505c30.1,0,66.6-4.5,76.7-38.3s-63.4-70.6-76.7-70.6s-86.7,36.7-76.7,70.6S219.1,505,249.2,505z"/>
	<path class="st1" d="M175.2,327.2c-2.6-2.8-6.9-2.9-9.6-0.3c-9.4,9.3-28.7,30.7-28.9,49c-0.3,24.1,12.4,41.7,38.9,29.3
		c25.4-11.9,26.7-31.7,23-44.1C195.6,351.2,182.9,335.7,175.2,327.2z"/>
	<path class="st1" d="M326.3,327.2c2.6-2.8,6.9-2.9,9.6-0.3c9.4,9.3,28.7,30.7,28.9,49c0.3,24.1-12.4,41.7-38.9,29.3
		c-25.4-11.9-26.7-31.7-23-44.1C305.9,351.2,318.5,335.7,326.3,327.2z"/>
	<path class="st1" d="M249.2,361.2c68.7,0,19.8-95.2,0-95.2S180.5,361.2,249.2,361.2z"/>
</g>
</svg>
